<?xml version="1.0" encoding="UTF-8" standalone="no"?>
<!DOCTYPE svg PUBLIC "-//W3C//DTD SVG 1.1//EN"
 "http://www.w3.org/Graphics/SVG/1.1/DTD/svg11.dtd">
<!-- Generated by graphviz version 2.38.0 (20140413.2041)
 -->
<!-- Title: %3 Pages: 1 -->
<svg width="260pt" height="44pt"
 viewBox="0.00 0.00 260.00 44.00" xmlns="http://www.w3.org/2000/svg" xmlns:xlink="http://www.w3.org/1999/xlink">
<g id="graph0" class="graph" transform="scale(1 1) rotate(0) translate(4 40)">
<title>%3</title>
<polygon fill="white" stroke="none" points="-4,4 -4,-40 256,-40 256,4 -4,4"/>
<!-- input -->
<g id="node1" class="node"><title>input</title>
<polygon fill="none" stroke="black" points="58,-36 0,-36 0,-0 58,-0 58,-36"/>
<text text-anchor="middle" x="29" y="-14.3" font-family="Times New Roman,serif" font-size="14.00">Inndata</text>
</g>
<!-- funk -->
<g id="node2" class="node"><title>funk</title>
<polygon fill="none" stroke="black" points="162,-36 94,-36 94,-0 162,-0 162,-36"/>
<text text-anchor="middle" x="128" y="-14.3" font-family="Times New Roman,serif" font-size="14.00">Funksjon</text>
</g>
<!-- input&#45;&gt;funk -->
<g id="edge1" class="edge"><title>input&#45;&gt;funk</title>
<path fill="none" stroke="black" d="M58.0564,-18C66.0996,-18 75.061,-18 83.791,-18"/>
<polygon fill="black" stroke="black" points="83.864,-21.5001 93.864,-18 83.864,-14.5001 83.864,-21.5001"/>
</g>
<!-- output -->
<g id="node3" class="node"><title>output</title>
<polygon fill="none" stroke="black" points="252,-36 198,-36 198,-0 252,-0 252,-36"/>
<text text-anchor="middle" x="225" y="-14.3" font-family="Times New Roman,serif" font-size="14.00">Utdata</text>
</g>
<!-- funk&#45;&gt;output -->
<g id="edge2" class="edge"><title>funk&#45;&gt;output</title>
<path fill="none" stroke="black" d="M162.226,-18C170.428,-18 179.255,-18 187.599,-18"/>
<polygon fill="black" stroke="black" points="187.825,-21.5001 197.825,-18 187.825,-14.5001 187.825,-21.5001"/>
</g>
</g>
</svg>
